<?xml version="1.0" standalone="no"?>
<!DOCTYPE svg PUBLIC "-//W3C//DTD SVG 20010904//EN"
 "http://www.w3.org/TR/2001/REC-SVG-20010904/DTD/svg10.dtd">
<svg version="1.0" xmlns="http://www.w3.org/2000/svg"
 width="800.000000pt" height="800.000000pt" viewBox="0 0 800.000000 800.000000"
 preserveAspectRatio="xMidYMid meet">
<metadata>
Created by potrace 1.14, written by Peter Selinger 2001-2017
</metadata>
<g transform="translate(0.000000,800.000000) scale(0.100000,-0.100000)"
fill="#000000" stroke="none">
<path d="M3859 7796 c-2 -2 -29 -7 -59 -10 -30 -4 -73 -11 -95 -17 -22 -6 -51
-13 -65 -16 -125 -22 -391 -159 -505 -261 -20 -17 -38 -32 -40 -32 -5 0 -115
-112 -140 -141 -54 -65 -126 -176 -167 -255 -41 -80 -102 -239 -113 -295 -2
-11 -6 -28 -9 -37 -6 -18 -12 -63 -23 -152 -8 -73 -8 -190 0 -267 4 -35 3 -63
-2 -63 -6 0 -22 42 -36 95 -5 20 -7 25 -16 57 -15 50 -19 69 -25 113 -2 22 -5
45 -6 52 -1 7 -5 10 -10 7 -5 -4 -7 -8 -5 -11 3 -2 1 -21 -4 -41 -17 -68 -23
-156 -23 -297 1 -165 12 -236 60 -384 14 -43 20 -58 55 -136 25 -54 92 -170
100 -173 5 -2 9 -8 9 -13 0 -30 204 -255 290 -319 19 -14 45 -34 59 -46 42
-33 121 -84 132 -84 5 0 9 -5 9 -11 0 -5 4 -8 9 -4 5 3 12 1 16 -5 5 -8 128
-72 145 -75 3 -1 21 -8 40 -17 32 -14 7 -15 -312 -15 l-347 0 -13 36 c-6 20
-13 41 -14 47 -2 14 -63 213 -71 234 -3 8 -7 20 -8 26 -2 6 -17 56 -34 110
-17 55 -31 107 -31 116 0 9 -4 19 -9 22 -5 3 -12 23 -16 43 -4 21 -17 70 -30
108 -26 80 -69 218 -70 225 -1 3 -4 14 -7 25 -31 100 -70 227 -73 242 -2 10
-31 106 -65 213 -34 107 -63 204 -65 214 -3 11 -19 65 -36 120 -17 56 -32 106
-34 111 -1 6 -5 17 -8 25 -8 21 -40 130 -67 225 -13 44 -26 83 -30 87 -6 8
-37 -57 -110 -222 -18 -41 -46 -103 -61 -138 -16 -35 -29 -65 -29 -67 0 -2
-16 -38 -35 -79 -19 -42 -35 -78 -35 -81 0 -2 -11 -28 -24 -57 -14 -29 -68
-152 -121 -273 -53 -121 -104 -238 -114 -260 -30 -65 -45 -100 -146 -330 -53
-121 -103 -233 -111 -249 -8 -16 -14 -35 -14 -43 0 -7 -5 -13 -12 -13 -6 0 -8
-3 -5 -7 4 -3 2 -12 -4 -20 -6 -7 -8 -13 -4 -13 4 0 2 -7 -5 -15 -9 -11 -6
-27 18 -77 16 -35 39 -83 50 -108 77 -172 95 -207 111 -220 10 -8 53 -98 96
-200 43 -102 85 -201 93 -220 9 -19 16 -37 17 -40 1 -3 9 -23 19 -45 10 -22
33 -78 53 -125 19 -47 40 -91 47 -99 6 -8 10 -17 10 -20 -2 -8 9 -37 62 -161
25 -58 64 -148 86 -200 22 -52 46 -108 53 -125 28 -66 77 -178 104 -243 16
-37 54 -125 84 -197 30 -71 63 -148 72 -170 10 -22 19 -45 20 -50 2 -6 17 -41
34 -77 17 -37 40 -91 51 -120 12 -29 27 -66 35 -83 7 -16 48 -111 90 -210 94
-219 98 -229 100 -235 1 -3 8 -21 17 -40 8 -19 66 -154 127 -300 111 -262 125
-293 172 -399 13 -30 24 -57 25 -60 0 -3 10 -27 22 -53 12 -26 22 -49 22 -52
0 -3 11 -29 24 -58 13 -29 39 -89 57 -133 18 -44 37 -85 41 -91 5 -7 11 -20
13 -30 4 -16 135 -327 192 -454 9 -19 17 -39 19 -45 3 -14 132 -313 149 -349
8 -16 13 -31 11 -35 -2 -3 230 -6 517 -6 418 1 521 4 519 14 -1 7 2 10 8 6 6
-4 23 20 39 57 47 101 323 751 329 773 3 11 10 26 16 34 5 7 11 18 12 25 1 6
13 34 25 61 13 28 23 52 24 55 0 4 31 76 65 155 5 11 23 50 39 88 16 37 30 71
31 75 1 4 10 27 21 51 10 24 19 45 19 47 0 2 13 33 30 68 16 36 41 94 56 128
14 35 32 77 39 93 7 17 46 107 85 200 40 94 81 189 91 212 10 24 19 45 19 47
0 2 10 25 22 52 12 27 23 51 23 54 1 3 9 23 19 45 9 22 47 110 83 195 69 163
91 213 116 270 9 19 41 96 72 170 31 74 62 149 70 165 7 17 39 91 70 165 31
74 65 153 75 175 10 22 44 101 75 175 66 157 65 155 104 243 17 38 31 71 31
73 0 3 8 24 19 47 10 23 42 98 71 167 29 69 63 148 76 177 13 28 24 54 24 57
0 3 11 29 24 58 13 29 41 94 61 143 21 50 46 97 55 105 20 18 34 43 88 165 22
50 54 120 71 158 l31 67 -30 67 c-17 36 -30 72 -30 79 0 8 -4 14 -8 14 -4 0
-14 17 -21 38 -8 20 -24 60 -36 87 -35 77 -66 147 -80 180 -20 47 -39 91 -100
225 -31 69 -58 130 -59 135 -1 6 -14 36 -29 68 -15 32 -27 59 -27 62 0 2 -18
43 -40 90 -22 47 -40 88 -40 90 0 3 -12 30 -26 62 -15 32 -36 81 -49 108 -12
28 -32 71 -44 97 -11 26 -21 50 -21 53 0 3 -15 38 -34 78 -19 40 -45 99 -59
132 -14 33 -40 92 -58 130 -18 39 -33 73 -34 77 0 3 -3 10 -7 14 -8 8 -7 13
-47 -121 -42 -138 -99 -328 -121 -400 -30 -100 -72 -236 -96 -315 -36 -115
-86 -284 -88 -295 -1 -5 -4 -14 -8 -20 -3 -5 -9 -26 -14 -45 -10 -42 -9 -41
-17 -60 -3 -8 -19 -62 -37 -120 -17 -58 -36 -121 -43 -140 -6 -19 -12 -37 -12
-40 -1 -3 -4 -14 -7 -25 -37 -121 -75 -246 -114 -375 -25 -85 -51 -171 -57
-190 -6 -19 -11 -37 -12 -40 -11 -50 13 -47 -355 -47 -187 0 -340 4 -340 9 0
4 8 8 18 8 40 0 358 182 370 212 2 4 8 8 13 8 15 0 186 161 234 221 96 119
173 249 225 379 29 73 62 182 65 220 2 14 4 25 5 25 6 0 14 109 14 210 1 112
-5 196 -18 255 -3 14 -7 37 -8 53 -3 32 -18 36 -19 5 0 -13 -2 -30 -4 -38 -2
-8 -5 -26 -8 -40 -11 -57 -20 -89 -44 -162 -13 -43 -27 -78 -29 -78 -3 0 -2
28 1 63 12 119 8 270 -10 381 -17 102 -71 272 -113 351 -12 22 -29 56 -38 75
-18 39 -75 123 -86 128 -5 2 -8 10 -8 18 0 8 -4 14 -8 14 -4 0 -15 12 -24 28
-16 26 -130 143 -193 198 -73 63 -301 201 -345 208 -3 1 -9 4 -15 7 -9 6 -110
41 -127 45 -5 1 -9 2 -10 4 -5 3 -64 16 -118 26 -19 4 -44 9 -55 11 -24 6
-331 14 -336 9z"/>
</g>
</svg>
